<?xml version="1.0" encoding="UTF-8"?>
<svg width="22px" height="18px" viewBox="0 0 22 18" version="1.1" xmlns="http://www.w3.org/2000/svg" xmlns:xlink="http://www.w3.org/1999/xlink">
    <!-- Generator: Sketch 46.2 (44496) - http://www.bohemiancoding.com/sketch -->
    <title>Shape</title>
    <desc>Created with Sketch.</desc>
    <defs></defs>
    <g id="Page-1" stroke="none" stroke-width="1" fill="none" fill-rule="evenodd">
        <g id="Desktop" transform="translate(-444.000000, -8745.000000)" fill-rule="nonzero" fill="#1DA1F3">
            <g id="12-footer" transform="translate(-1.000000, 8554.000000)">
                <g id="footer-/-social-media" transform="translate(445.000000, 191.000000)">
                    <g id="Logo__x2014__FIXED">
                        <path d="M6.74863494,18 C14.8555939,18 19.2916392,11.0728346 19.2916392,5.0757874 C19.2916392,4.88090551 19.2916392,4.68602362 19.2830422,4.49114173 C20.142741,3.85334646 20.8906789,3.04724409 21.483871,2.13484252 C20.6929481,2.4980315 19.8418464,2.73720472 18.9477597,2.8523622 C19.8590404,2.29429134 20.5553964,1.3996063 20.8906789,0.336614173 C20.0395771,0.859251969 19.0939085,1.23129921 18.088061,1.43503937 C17.2799442,0.549212598 16.1365449,0 14.8727878,0 C12.4398405,0 10.4625334,2.03740157 10.4625334,4.54429134 C10.4625334,4.89862205 10.5055183,5.24409449 10.5742942,5.58070866 C6.91197769,5.39468504 3.66231654,3.57874016 1.48727878,0.832677165 C1.10901135,1.50590551 0.894086667,2.28543307 0.894086667,3.11811024 C0.894086667,4.69488189 1.6764125,6.08562992 2.85419974,6.90059055 C2.13205282,6.87401575 1.45289083,6.67027559 0.859698718,6.33366142 C0.859698718,6.35137795 0.859698718,6.36909449 0.859698718,6.39566929 C0.859698718,8.59251969 2.38136545,10.4350394 4.39306045,10.851378 C4.02339,10.9576772 3.63652558,11.0108268 3.23246718,11.0108268 C2.9487666,11.0108268 2.67366301,10.984252 2.40715641,10.9311024 C2.96596058,12.738189 4.59938814,14.0492126 6.52511327,14.0846457 C5.01204353,15.3070866 3.11210936,16.0334646 1.04883244,16.0334646 C0.696355962,16.0334646 0.343879487,16.015748 0,15.9714567 C1.9429191,17.2470472 4.26410564,18 6.74863494,18" id="Shape"></path>
                    </g>
                </g>
            </g>
        </g>
    </g>
</svg>