<?xml version="1.0" encoding="UTF-8"?>
<svg width="41px" height="17px" viewBox="0 0 41 17" version="1.1" xmlns="http://www.w3.org/2000/svg" xmlns:xlink="http://www.w3.org/1999/xlink">
    <!-- Generator: Sketch 46.2 (44496) - http://www.bohemiancoding.com/sketch -->
    <title>w</title>
    <desc>Created with Sketch.</desc>
    <defs></defs>
    <g id="Page-1" stroke="none" stroke-width="1" fill="none" fill-rule="evenodd">
        <g id="Desktop" transform="translate(-636.000000, -8746.000000)" fill="#000000">
            <g id="12-footer" transform="translate(-1.000000, 8554.000000)">
                <g id="footer-/-social-media" transform="translate(445.000000, 191.000000)">
                    <path d="M219.311337,1.6875 L221.59295,1.6875 C224.515272,1.6875 227.082636,1.74886006 229.295119,1.87158203 C230.152457,2.06982521 230.779318,2.40966556 231.175721,2.89111328 C231.839466,3.50472312 232.171334,4.49120414 232.171334,5.85058594 C232.254302,6.76628062 232.295785,7.91324181 232.295785,9.29150391 L232.295785,10.3959961 C232.240473,13.511246 232.139069,15.1962878 231.99157,15.4511719 C231.687354,16.3574264 231.097367,17.0418271 230.221592,17.5043945 C229.779096,17.7498385 229.018566,17.8725586 227.93998,17.8725586 C226.105462,17.95752 223.985197,18 221.579122,18 L219.352821,18 C216.439718,18 213.867744,17.9339199 211.636823,17.8017578 C211.02839,17.7167965 210.429185,17.4052761 209.839189,16.8671875 C209.120132,16.2346974 208.760609,15.2387763 208.760609,13.8793945 C208.677641,12.8598582 208.636157,11.6468169 208.636157,10.2402344 L208.636157,9.43310547 C208.636157,7.76219868 208.705297,6.15739702 208.843577,4.61865234 C208.871233,4.40152886 209.023339,4.01920847 209.299899,3.47167969 C209.696302,2.79198879 210.332382,2.29638828 211.208157,1.98486328 C211.355656,1.88102162 212.34204,1.81022154 214.167339,1.77246094 C215.577797,1.71582003 217.292446,1.6875 219.311337,1.6875 Z M194.116807,4.33544922 C194.153681,4.33544922 194.241257,4.66112956 194.379538,5.3125 C194.619223,6.19043408 194.89117,7.29019521 195.195387,8.61181641 L195.292183,8.61181641 L196.287795,4.33544922 L197.905666,4.33544922 L197.933322,4.36376953 L197.94715,4.36376953 C196.693409,8.50799598 196.066548,10.6225582 196.066548,10.7075195 L196.066548,15.0263672 L196.025064,15.0688477 L194.462505,15.0688477 L194.421022,15.0263672 L194.421022,10.9057617 C194.421022,10.7735996 193.8633,8.86671763 192.747839,5.18505859 L192.512764,4.36376953 L192.54042,4.33544922 L194.116807,4.33544922 Z M210.502931,4.46289062 L210.502931,5.9921875 L212.13463,5.9921875 L212.176113,6.03466797 L212.176113,15.1679688 L213.780156,15.1679688 L213.780156,6.03466797 L213.82164,5.9921875 L215.453338,5.9921875 L215.453338,4.46289062 L210.502931,4.46289062 Z M220.956864,4.46289063 L220.956864,15.1679688 L222.381143,15.1679688 L222.381143,14.6015625 L222.408799,14.6015625 C222.795983,15.0358095 223.215427,15.2529297 223.667143,15.2529297 L223.860734,15.2529297 C224.395417,15.2529297 224.768768,14.9366894 224.980798,14.3041992 C225.03611,14.0304348 225.063766,13.7755546 225.063766,13.5395508 L225.063766,9.20654297 C225.063766,7.84716117 224.598229,7.16748047 223.667143,7.16748047 C223.243083,7.16748047 222.823639,7.40820072 222.408799,7.88964844 L222.381143,7.88964844 L222.381143,4.46289063 L220.956864,4.46289063 Z M199.924547,6.95507812 L200.048999,6.95507812 C200.943211,6.95507812 201.565462,7.37987856 201.915772,8.22949219 C201.99874,8.43717552 202.040224,8.66845576 202.040224,8.92333984 L202.040224,13.1572266 C202.040224,14.2050834 201.570078,14.8847641 200.629773,15.1962891 L199.938375,15.28125 C198.878227,15.28125 198.200664,14.7431694 197.905666,13.6669922 C197.868791,13.4121081 197.850354,13.0864278 197.850354,12.6899414 L197.850354,9.29150391 C197.850354,8.33804862 198.076208,7.71500797 198.527924,7.42236328 C198.887452,7.11083829 199.352989,6.95507812 199.924547,6.95507812 Z M226.156174,9.33398438 L226.156174,13.0297852 C226.156174,14.1059624 226.557181,14.8328432 227.359206,15.2104492 C227.626548,15.323731 227.916932,15.3803711 228.230367,15.3803711 C229.244422,15.3803711 229.903548,14.9508506 230.207764,14.0917969 C230.318389,13.7802719 230.3737,13.3129914 230.3737,12.6899414 L230.3737,12.3500977 L228.894109,12.3500977 L228.894109,12.9589844 C228.894109,13.4687525 228.82036,13.7802729 228.672862,13.8935547 C228.5438,13.9690759 228.41935,14.0068359 228.299507,14.0068359 L228.175055,14.0068359 C227.797089,14.0068359 227.608109,13.6009155 227.608109,12.7890625 L227.608109,11.4296875 L227.649593,11.387207 L230.3737,11.387207 L230.3737,9.56054688 C230.3737,7.90852039 229.709965,7.08251953 228.382475,7.08251953 L228.230367,7.08251953 C227.37303,7.08251953 226.73695,7.52147999 226.32211,8.39941406 C226.211485,8.71093906 226.156174,9.02245938 226.156174,9.33398438 Z M203.28474,7.13916016 L204.653707,7.13916016 L204.695191,7.18164062 L204.695191,13.0864258 C204.695191,13.5112326 204.805813,13.7236328 205.027062,13.7236328 L205.082373,13.7236328 C205.294403,13.7236328 205.56635,13.5348326 205.898223,13.1572266 L205.898223,7.18164062 L205.939707,7.13916016 L207.322502,7.13916016 L207.363986,7.18164062 L207.363986,15.0263672 L207.322502,15.0688477 L205.939707,15.0688477 L205.898223,15.0263672 L205.898223,14.2333984 C205.326664,14.8753287 204.778161,15.1962891 204.252696,15.1962891 C203.782544,15.1962891 203.473722,14.9555688 203.326223,14.4741211 C203.270911,14.2286772 203.243256,13.9454769 203.243256,13.6245117 L203.243256,7.18164062 L203.28474,7.13916016 Z M215.43951,7.26660156 L215.43951,13.3413086 C215.43951,14.2098025 215.522477,14.7337231 215.688414,14.9130859 C215.863569,15.1585299 216.103251,15.28125 216.407467,15.28125 L216.435123,15.28125 C216.969807,15.28125 217.522919,14.9602897 218.094477,14.3183594 L218.108305,14.3183594 L218.108305,15.1679688 L219.546412,15.1679688 L219.546412,7.26660156 L218.108305,7.26660156 L218.108305,13.2563477 C217.776433,13.652834 217.499877,13.8510742 217.278628,13.8510742 L217.181833,13.8510742 C216.969803,13.8510742 216.86379,13.676434 216.86379,13.3271484 L216.86379,7.26660156 L215.43951,7.26660156 Z M199.357601,8.88085938 L199.357601,13.2421875 C199.357601,13.6669943 199.546581,13.8793945 199.924547,13.8793945 L199.938375,13.8793945 C200.353216,13.8793945 200.560633,13.6150743 200.560633,13.0864258 L200.560633,8.99414062 C200.560633,8.68261563 200.436182,8.47493542 200.187278,8.37109375 L199.924547,8.32861328 C199.546581,8.37581404 199.357601,8.55989423 199.357601,8.88085938 Z M223.031057,8.41357422 C223.362929,8.41357422 223.5473,8.66373448 223.584175,9.1640625 L223.584175,13.3413086 C223.584175,13.7944359 223.441287,14.0209961 223.155508,14.0209961 L223.031057,14.0209961 C222.809808,14.0209961 222.593173,13.902996 222.381143,13.6669922 L222.381143,8.75341797 C222.565517,8.52685434 222.782152,8.41357422 223.031057,8.41357422 Z M228.271851,8.44189453 C228.686692,8.44189453 228.894109,8.72981483 228.894109,9.30566406 L228.894109,10.1411133 L228.852625,10.1835938 L227.649593,10.1835938 L227.608109,10.1411133 L227.608109,9.80126953 C227.608109,9.12157863 227.672639,8.72981823 227.801701,8.62597656 C227.939981,8.50325459 228.096696,8.44189453 228.271851,8.44189453 Z" id="w"></path>
                </g>
            </g>
        </g>
    </g>
</svg>