<?xml version="1.0" encoding="UTF-8"?>
<svg width="49px" height="14px" viewBox="0 0 49 14" version="1.1" xmlns="http://www.w3.org/2000/svg" xmlns:xlink="http://www.w3.org/1999/xlink">
    <!-- Generator: Sketch 46.2 (44496) - http://www.bohemiancoding.com/sketch -->
    <title>e</title>
    <desc>Created with Sketch.</desc>
    <defs></defs>
    <g id="Page-1" stroke="none" stroke-width="1" fill="none" fill-rule="evenodd">
        <g id="Desktop" transform="translate(-728.000000, -8748.000000)" fill="#000000">
            <g id="12-footer" transform="translate(-1.000000, 8554.000000)">
                <g id="footer-/-social-media" transform="translate(445.000000, 191.000000)">
                    <path d="M289.681314,3.5 L290.104736,3.5 C290.440423,3.5 290.871469,3.55859316 291.397888,3.67578125 L291.397888,3.6875 L291.22623,5.8203125 L291.169011,5.83203125 C290.955392,5.75390586 290.688372,5.71484375 290.367944,5.71484375 L290.230618,5.71484375 C289.772862,5.71484375 289.467697,5.94921641 289.315112,6.41796875 C289.246449,6.56640699 289.212117,6.96874672 289.212117,7.625 L289.212117,7.6953125 L291.294893,7.6953125 L291.329225,7.73046875 L291.329225,9.875 L291.294893,9.91015625 L289.212117,9.91015625 L289.212117,16.765625 L289.177786,16.8007812 L286.282499,16.8007812 L286.248167,16.765625 L286.248167,9.91015625 L284.543037,9.91015625 L284.508706,9.875 L284.508706,7.73046875 L284.543037,7.6953125 L286.293942,7.6953125 L286.293942,7.2265625 C286.293942,5.52342898 286.740247,4.43750234 287.63287,3.96875 C288.174547,3.65624844 288.857355,3.5 289.681314,3.5 Z M292.885585,3.6875 L295.80376,3.6875 L295.838091,3.72265625 L295.838091,16.765625 L295.80376,16.8007812 L292.885585,16.8007812 L292.851253,16.765625 L292.851253,3.72265625 L292.885585,3.6875 Z M311.756449,3.6875 L314.674624,3.6875 L314.708956,3.72265625 L314.708956,11.515625 L314.7204,11.515625 C316.04789,9.42967707 316.871837,8.1562523 317.192265,7.6953125 L320.419424,7.6953125 L320.419424,7.71875 L317.466917,11.8671875 L320.682632,16.7890625 L320.659744,16.8007812 L317.112159,16.8007812 C317.089271,16.7929687 316.806993,16.2773489 316.265316,15.2539062 L314.708956,12.3007812 L314.708956,16.765625 L314.674624,16.8007812 L311.756449,16.8007812 L311.722118,16.765625 L311.722118,3.72265625 L311.756449,3.6875 Z M298.37862,3.8984375 L301.296795,3.8984375 L301.331126,3.93359375 L301.331126,6.18359375 L301.296795,6.21875 L298.37862,6.21875 L298.344288,6.18359375 L298.344288,3.93359375 L298.37862,3.8984375 Z M307.991431,7.484375 L308.128757,7.484375 C309.036639,7.484375 309.803367,7.65624828 310.428966,8 L310.428966,8.01171875 C310.306898,9.53516387 310.226792,10.296875 310.188646,10.296875 C309.700373,9.96874836 309.128188,9.8046875 308.472072,9.8046875 L308.334746,9.8046875 C307.533675,9.8046875 306.904271,10.1992148 306.446515,10.9882812 C306.255784,11.4179709 306.16042,11.8554665 306.16042,12.3007812 C306.16042,13.253911 306.618168,13.97656 307.533679,14.46875 C307.899883,14.6093757 308.212677,14.6796875 308.472072,14.6796875 L308.529291,14.6796875 L308.575066,14.6914062 L308.666617,14.6796875 L308.700948,14.6796875 C309.30366,14.6796875 309.875845,14.5390639 310.417522,14.2578125 L310.451853,14.4101562 L310.497629,16.5898438 C309.757591,16.8632826 309.002306,17 308.231752,17 L307.876993,17 C306.572391,17 305.420391,16.5585982 304.420959,15.6757812 C303.528336,14.7773393 303.082031,13.6367257 303.082031,12.2539062 C303.082031,10.496085 303.768654,9.16406703 305.141919,8.2578125 C305.988767,7.74218492 306.938594,7.484375 307.991431,7.484375 Z M326.976734,7.484375 L327.079729,7.484375 C327.36964,7.484375 327.690064,7.5195309 328.04101,7.58984375 L328.04101,7.61328125 L327.903684,10.1914062 L327.89224,10.2148438 L327.869353,10.2148438 C327.617587,10.1523434 327.400157,10.1210938 327.217055,10.1210938 L326.793633,10.1210938 C325.946786,10.1210938 325.340269,10.5859329 324.974065,11.515625 C324.82148,11.921877 324.745189,12.3789037 324.745189,12.8867188 L324.745189,16.765625 L324.710857,16.8007812 L321.792682,16.8007812 L321.758351,16.765625 L321.758351,7.73046875 L321.792682,7.6953125 L324.459093,7.6953125 L324.493425,7.73046875 L324.493425,9.37109375 L324.504868,9.37109375 C325.031287,8.11327496 325.855234,7.484375 326.976734,7.484375 Z M328.693308,7.58984375 L329.963572,7.58984375 L329.997904,7.625 L329.997904,7.87109375 L329.963572,7.90625 L329.482932,7.90625 L329.482932,9.3125 L329.4486,9.34765625 L329.20828,9.34765625 L329.173948,9.3125 L329.173948,7.90625 L328.693308,7.90625 L328.658976,7.87109375 L328.658976,7.625 L328.693308,7.58984375 Z M330.409881,7.58984375 L330.844747,7.58984375 C330.91341,7.67578168 331.062178,8.06249656 331.291056,8.75 L331.3025,8.75 C331.569523,7.97655863 331.718292,7.58984375 331.748809,7.58984375 L332.160786,7.58984375 L332.195118,7.625 L332.195118,9.3125 L332.160786,9.34765625 L331.920466,9.34765625 L331.886135,9.3125 L331.886135,8.0703125 L331.874691,8.0703125 C331.584779,8.92187926 331.428382,9.34765625 331.405494,9.34765625 L331.188061,9.34765625 C331.149915,9.34765625 330.993518,8.92578547 330.718865,8.08203125 L330.707421,8.08203125 L330.707421,9.3125 L330.673089,9.34765625 L330.409881,9.34765625 L330.37555,9.3125 L330.37555,7.625 L330.409881,7.58984375 Z M298.37862,7.6953125 L301.296795,7.6953125 L301.331126,7.73046875 L301.331126,16.765625 L301.296795,16.8007812 L298.37862,16.8007812 L298.344288,16.765625 L298.344288,7.73046875 L298.37862,7.6953125 Z" id="e"></path>
                </g>
            </g>
        </g>
    </g>
</svg>