<?xml version="1.0" encoding="UTF-8"?>
<svg width="18px" height="14px" viewBox="0 0 18 14" version="1.1" xmlns="http://www.w3.org/2000/svg" xmlns:xlink="http://www.w3.org/1999/xlink">
    <!-- Generator: Sketch 46.2 (44496) - http://www.bohemiancoding.com/sketch -->
    <title>Logo__x2014__FIXED</title>
    <desc>Created with Sketch.</desc>
    <defs></defs>
    <g id="Page-1" stroke="none" stroke-width="1" fill="none" fill-rule="evenodd">
        <g id="Desktop" transform="translate(-303.000000, -2515.000000)" fill-rule="nonzero" fill="#B1B1B1">
            <g id="3-Speakers" transform="translate(3.000000, 2073.000000)">
                <g id="Speakers" transform="translate(132.000000, 184.000000)">
                    <g id="Christian-Heilmann" transform="translate(1.000000, 0.000000)">
                        <g id="SOCIAL" transform="translate(88.000000, 258.000000)">
                            <g id="Logo__x2014__FIXED" transform="translate(77.000000, 0.000000)">
                                <path d="M7.7327541,14 C14.3657205,14 17.9952122,8.61220472 17.9952122,3.94783465 C17.9952122,3.79625984 17.9952122,3.64468504 17.9881783,3.49311024 C18.6915681,2.99704724 19.3035173,2.37007874 19.7888563,1.66043307 C19.1417376,1.94291339 18.4453817,2.12893701 17.7138562,2.21850394 C18.4594495,1.78444882 19.0291953,1.08858268 19.3035173,0.261811024 C18.6071613,0.668307087 17.8334325,0.957677165 17.0104664,1.11614173 C16.3492799,0.427165354 15.4137714,0 14.3797883,0 C12.389195,0 10.7713983,1.58464567 10.7713983,3.53444882 C10.7713983,3.81003937 10.8065678,4.07874016 10.862839,4.34055118 C7.86639817,4.19586614 5.2075845,2.78346457 3.42800815,0.647637795 C3.11851661,1.17125984 2.94266915,1.77755906 2.94266915,2.42519685 C2.94266915,3.6515748 3.58275392,4.73326772 4.54639803,5.36712598 C3.95555055,5.34645669 3.39987256,5.18799213 2.91453356,4.9261811 C2.91453356,4.93996063 2.91453356,4.95374016 2.91453356,4.97440945 C2.91453356,6.68307087 4.15953361,8.11614173 5.80546588,8.43996063 C5.50300824,8.5226378 5.1864828,8.56397638 4.85588957,8.56397638 C4.62377092,8.56397638 4.39868616,8.54330709 4.1806353,8.5019685 C4.63783871,9.90748031 5.97427945,10.9271654 7.54987274,10.9547244 C6.31190658,11.9055118 4.75741499,12.4704724 3.06927932,12.4704724 C2.78088948,12.4704724 2.49249964,12.4566929 2.2111437,12.4222441 C3.80080478,13.4143701 5.6999574,14 7.7327541,14" id="Shape"></path>
                            </g>
                        </g>
                    </g>
                </g>
            </g>
        </g>
    </g>
</svg>